<?xml version="1.0" encoding="UTF-8"?><svg id="Layer_1" xmlns="http://www.w3.org/2000/svg" xmlns:xlink="http://www.w3.org/1999/xlink" viewBox="0 0 1024 1024"><defs><style>.cls-1{fill:#1a73e8;filter:url(#drop-shadow-1);}.cls-2{filter:url(#drop-shadow-2);}.cls-2,.cls-3{fill:#135689;}.cls-4{clip-path:url(#clippath);}.cls-5{fill:none;}.cls-6{fill:#019c94;}</style><clipPath id="clippath"><path class="cls-5" d="M835.12,391.79l-97.73-209.41H274.31c-10.11,0-16.91,10.37-12.87,19.64l85.85,197.15-1.36,8.83-157.21,217.61c-3,4.16-3.5,9.62-1.3,14.25l92.14,193.76c2.23,4.69,6.51,7.34,11.03,7.87l-.1,.14h238.23c14.37,0,27.73-7.41,35.33-19.61l102.67-164.75h-234.11l17.34-24.01h229.26l153.02-211.12c6.41-8.84,7.52-20.46,2.9-30.35Z"/></clipPath><filter id="drop-shadow-1" filterUnits="userSpaceOnUse"><feOffset dx="13.92" dy="0"/><feGaussianBlur result="blur" stdDeviation="23.19"/><feFlood flood-color="#000" flood-opacity=".45"/><feComposite in2="blur" operator="in"/><feComposite in="SourceGraphic"/></filter><filter id="drop-shadow-2" filterUnits="userSpaceOnUse"><feOffset dx="16.93" dy="8.47"/><feGaussianBlur result="blur-2" stdDeviation="12.7"/><feFlood flood-color="#000" flood-opacity=".45"/><feComposite in2="blur-2" operator="in"/><feComposite in="SourceGraphic"/></filter></defs><g class="cls-4"><g><path class="cls-6" d="M488.6,182.38h248.78l97.74,209.41c4.62,9.89,3.51,21.51-2.9,30.35l-153.02,211.12H418.92"/><path class="cls-1" d="M380.8,182.38h248.78l97.74,209.41c4.62,9.89,3.51,21.51-2.9,30.35l-153.02,211.12H311.11"/><path class="cls-3" d="M666.72,657.27l-102.69,164.75c-7.58,12.19-20.95,19.6-35.3,19.6h-230.7l163.23-224.06-11.3,15.7-17.36,24h234.13Z"/><path class="cls-2" d="M605.89,417.38l-142.61,197.43-2.03,2.75-163.23,224.06h-7.53l.08-.13c-4.49-.51-8.81-3.17-11.01-7.87l-92.15-193.75c-2.2-4.61-1.69-10.12,1.31-14.27l157.22-217.58v-.08l3.22-4.44-1.86-4.28v-.04l-85.85-197.13c-4.06-9.27,2.75-19.64,12.87-19.64h245.31l89.44,205.39c4.23,9.74,3.05,21-3.17,29.59Z"/></g></g></svg>